<?xml version="1.0" encoding="utf-8"?>
<!-- Generator: Adobe Illustrator 26.0.0, SVG Export Plug-In . SVG Version: 6.00 Build 0)  -->
<svg version="1.1" id="Layer_1" xmlns="http://www.w3.org/2000/svg" xmlns:xlink="http://www.w3.org/1999/xlink" x="0px" y="0px"
	 width="149.1px" height="54.9px" viewBox="0 0 149.1 54.9" style="enable-background:new 0 0 149.1 54.9;" xml:space="preserve">
<style type="text/css">
	.st0{opacity:0.63;fill:url(#SVGID_1_);}
	.st1{fill:#E0E0E0;}
	.st2{fill:#999999;}
</style>
<radialGradient id="SVGID_1_" cx="83.046" cy="11.0725" r="50.5647" gradientTransform="matrix(1.398 0 0 -0.2865 -41.4427 45.9447)" gradientUnits="userSpaceOnUse">
	<stop  offset="1.437700e-08" style="stop-color:#5E5E5E"/>
	<stop  offset="0.1191" style="stop-color:#666666;stop-opacity:0.8809"/>
	<stop  offset="0.2998" style="stop-color:#7B7B7B;stop-opacity:0.7002"/>
	<stop  offset="0.5197" style="stop-color:#9D9D9D;stop-opacity:0.4803"/>
	<stop  offset="0.7678" style="stop-color:#CCCCCC;stop-opacity:0.2322"/>
	<stop  offset="1" style="stop-color:#FFFFFF;stop-opacity:0"/>
</radialGradient>
<ellipse class="st0" cx="74.7" cy="42.8" rx="97.9" ry="40.8"/>
<polygon class="st1" points="60.4,21.4 65.1,29.2 71.5,31.8 79.5,31.1 86.2,25.3 89.4,20.4 103.4,21 105.4,21.4 106.5,42.2 
	105.5,43.6 102.2,45.5 47.6,45 43.3,43.6 42.8,24.8 43.6,21.5 "/>
<g>
	<path class="st2" d="M100,4.6c-1.1-2.2-3.2-3.5-5.7-3.5H54.9c-2.4,0-4.6,1.3-5.7,3.5l-7.7,15.6c-0.1,0.2-0.2,0.5-0.2,0.7l0,0l0,0
		l0,0v21c0,2.7,2.2,5,5,5H103c2.7,0,5-2.2,5-5v-21l0,0l0,0l0,0c0-0.2-0.1-0.5-0.2-0.7L100,4.6z M52.2,6.1c0.5-1,1.5-1.7,2.7-1.7
		h39.5c1.2,0,2.2,0.7,2.7,1.7l6.6,13.1H88.2c-0.8,0-1.5,0.6-1.7,1.3c-0.1,0.4-2.1,10-12,10c-9.8,0-11.9-9.6-12-10
		c-0.2-0.7-0.8-1.3-1.7-1.3H45.6L52.2,6.1z M104.7,41.9c0,0.9-0.7,1.7-1.7,1.7H46.3c-0.9,0-1.7-0.7-1.7-1.7V22.6h15.1
		c1.4,4.5,5.8,11.3,14.9,11.3s13.5-6.8,14.9-11.3h15.1C104.7,22.6,104.7,41.9,104.7,41.9z"/>
</g>
</svg>
